<svg width="76" height="75" viewBox="0 0 76 75" fill="none" xmlns="http://www.w3.org/2000/svg">
<path d="M53.3359 29.7949C53.3359 28.8867 52.7793 28.0957 51.959 27.7441C46.4512 25.4297 42.1445 21.1523 39.8008 15.6445C39.4492 14.7949 38.6289 14.2676 37.7207 14.2676C36.8125 14.2676 36.0215 14.7949 35.6406 15.6445C33.3262 21.123 29.0195 25.4004 23.541 27.7148C22.7207 28.0664 22.1641 28.8574 22.1641 29.7656C22.1641 30.6738 22.6914 31.4648 23.5117 31.8457C28.7852 34.1602 33.1797 38.6133 35.6113 44.0918C35.9629 44.9121 36.7832 45.4395 37.6621 45.4395C38.541 45.4395 39.3613 44.9121 39.7129 44.0625C41.998 38.7598 46.4805 34.3066 51.959 31.875C52.8086 31.4941 53.3359 30.6738 53.3359 29.7949ZM37.6621 41.8066C35.0547 36.5918 30.8066 32.3145 25.7676 29.7949C30.9824 27.2754 35.1719 23.1152 37.6914 17.9004C40.2402 23.1445 44.4297 27.334 49.7031 29.8242C44.4883 32.4609 40.1816 36.7383 37.6621 41.8066Z" fill="black"/>
<path d="M51.7543 52.9689C52.018 53.0568 52.3695 53.174 52.809 53.1447C53.5121 53.1154 54.1566 52.8224 54.6547 52.3244C55.182 51.7971 55.475 51.0939 55.4457 50.3615C55.3871 45.7326 58.3168 41.6896 62.7113 40.3127C63.0043 40.2248 63.3266 40.0783 63.5609 39.8732C64.1469 39.4338 64.5277 38.7892 64.6156 38.1154C64.7328 37.383 64.557 36.6506 64.1176 36.0353C61.3637 32.3146 61.3344 27.3342 64.0883 23.6721L64.4398 23.2619L64.5863 22.8224C64.8207 22.1193 64.7328 21.3576 64.4105 20.7424C64.059 20.0685 63.473 19.5705 62.7992 19.3654C58.4047 17.9592 55.5043 13.9455 55.5336 9.34588C55.5336 8.99431 55.475 8.67205 55.3871 8.37908C55.1527 7.70525 54.6547 7.14861 53.9809 6.79705C53.307 6.47478 52.6039 6.44549 51.9301 6.67986C50.8461 7.06072 49.7328 7.2365 48.5902 7.2365C45.2211 7.2365 42.057 5.59588 40.1234 2.87127C39.9184 2.60759 39.684 2.37322 39.4789 2.22674C38.2484 1.34783 36.5199 1.6408 35.641 2.87127C33.7074 5.62517 30.5434 7.2365 27.1742 7.2365C26.0316 7.2365 24.9184 7.06072 23.8637 6.67986C22.9262 6.35759 21.725 6.59197 21.0219 7.35369C20.4945 7.88103 20.2016 8.58416 20.2309 9.31658C20.2895 13.9455 17.3598 17.9592 12.9945 19.3361C12.6723 19.424 12.4086 19.5705 12.1156 19.7756C10.9145 20.6838 10.6508 22.4123 11.559 23.6428C14.3129 27.3635 14.3129 32.3439 11.559 36.0646C11.3832 36.299 11.2367 36.592 11.1488 36.8556C10.9438 37.5588 11.0024 38.2619 11.3539 38.965C11.7055 39.6096 12.2914 40.1076 12.9652 40.3127C17.3598 41.7189 20.2602 45.7619 20.2016 50.3029C20.1723 50.6545 20.2309 50.9767 20.3481 51.299C20.5824 51.9728 21.0805 52.5295 21.7543 52.881C22.4281 53.2033 23.1313 53.2326 23.8051 52.9982C24.9184 52.6174 26.0609 52.4416 27.2035 52.4416C30.602 52.4416 33.6488 54.0529 35.641 56.8361C35.8168 57.0705 36.0512 57.3049 36.2856 57.4806C36.7543 57.8322 37.3109 58.008 37.8676 58.008C38.0141 58.008 38.1898 58.008 38.3363 57.9787C39.0688 57.8615 39.7133 57.4514 40.1234 56.8654C42.643 53.0568 47.3598 51.5041 51.7543 52.9689ZM37.7797 55.1955C35.3188 51.7092 31.3051 49.6291 27.057 49.6291C25.6215 49.6291 24.1859 49.8635 22.8383 50.3908C22.9262 44.5607 19.2055 39.4338 13.6684 37.7346C17.1547 33.0178 17.1547 26.6896 13.6391 22.0607C19.2055 20.3322 22.9262 15.2638 22.8969 9.40447C24.2152 9.84392 25.6215 10.0783 27.0277 10.0783C31.3051 10.0783 35.3188 7.99822 37.6918 4.51189C40.1527 7.99822 44.1957 10.0783 48.4731 10.0783C49.9086 10.0783 51.3441 9.84392 52.6332 9.34588C52.5746 15.1174 56.2367 20.1857 61.7445 22.0021C58.3168 26.6896 58.3168 32.9299 61.7445 37.6467C56.2074 39.4338 52.516 44.5314 52.6332 50.3029H52.6039C47.0961 48.4279 41.0609 50.3908 37.7797 55.1955Z" fill="black"/>
<path d="M28.6387 56.6896C27.9941 56.2795 27.1152 56.4553 26.7051 57.0998L19.8496 67.5881L16.0703 59.8537L8.21875 59.8244L15.3965 48.8381C15.8359 48.1935 15.6309 47.3146 14.9863 46.9045C14.3418 46.465 13.4629 46.6701 13.0527 47.3146L3.0332 62.6369L14.3418 62.6662L19.5273 73.2717L29.0781 58.6232C29.4883 57.9787 29.2832 57.0998 28.6387 56.6896Z" fill="black"/>
<path d="M61.4472 47.2851C61.0078 46.6406 60.1581 46.4648 59.5136 46.8749C58.8691 47.3144 58.6933 48.164 59.1035 48.8085L66.3105 59.8242L58.4589 59.8534L54.6796 67.5878L47.7949 57.0702C47.3554 56.4257 46.5058 56.2499 45.8613 56.6601C45.2167 57.0995 45.041 57.9492 45.4511 58.5937L55.0312 73.2714L60.2167 62.6659L71.5253 62.6367L61.4472 47.2851Z" fill="black"/>
</svg>
