<svg width="72" height="72" viewBox="0 0 72 72" fill="none" xmlns="http://www.w3.org/2000/svg">
<path d="M56.1598 20.16C58.5457 20.16 60.4798 18.2259 60.4798 15.84C60.4798 13.4541 58.5457 11.52 56.1598 11.52C53.774 11.52 51.8398 13.4541 51.8398 15.84C51.8398 18.2259 53.774 20.16 56.1598 20.16Z" stroke="black" stroke-width="2" stroke-miterlimit="10" stroke-linecap="round"/>
<path d="M67.6797 7.91982C67.6797 5.93118 66.0683 4.31982 64.0797 4.31982C63.8551 4.31982 42.6583 4.3227 42.6583 4.3227C40.7431 4.3227 38.9099 4.2219 37.8472 5.28462L5.11746 38.0129C4.0533 39.0757 4.0533 40.8008 5.11746 41.8635L30.136 66.8821C31.1987 67.9448 32.9239 67.9448 33.9866 66.8821L66.7149 34.1523C67.7776 33.091 67.6768 31.3011 67.6768 29.3427C67.6768 29.3427 67.6797 8.14446 67.6797 7.91982Z" stroke="black" stroke-width="3" stroke-miterlimit="10" stroke-linecap="round"/>
</svg>
