<svg width="75" height="75" viewBox="0 0 75 75" fill="none" xmlns="http://www.w3.org/2000/svg">
<path fill-rule="evenodd" clip-rule="evenodd" d="M70.1562 51.5172C70.1562 51.5344 70.1656 51.5469 70.1656 51.5625C70.1656 51.5703 70.1609 51.5781 70.1609 51.5875C70.1625 51.5953 70.1656 51.6031 70.1656 51.6125C70.1656 52.475 69.4672 53.175 68.6031 53.175C68.6266 53.1734 54.6875 53.125 54.6875 53.125C53.8234 53.125 53.125 52.425 53.125 51.5625C53.125 50.6984 53.8234 50 54.6875 50H67.1031C67.1328 49.4781 67.1875 48.9656 67.1875 48.4375C67.1875 32.0422 53.8953 18.75 37.5 18.75C21.1047 18.75 7.8125 32.0422 7.8125 48.4375C7.8125 48.9656 7.86719 49.4781 7.89531 50H20.3125C21.1766 50 21.875 50.6984 21.875 51.5625C21.875 52.425 21.1766 53.125 20.3125 53.125C20.3125 53.125 6.375 53.1734 6.39687 53.1734C5.53281 53.1734 4.83438 52.4734 4.83438 51.6109C4.83438 51.6016 4.8375 51.5937 4.83906 51.5859C4.83906 51.5766 4.83438 51.5687 4.83438 51.5609C4.83438 51.5437 4.84375 51.5312 4.84375 51.5172C4.74844 50.5016 4.6875 49.4766 4.6875 48.4375C4.6875 30.3141 19.3781 15.625 37.5 15.625C55.6219 15.625 70.3125 30.3141 70.3125 48.4375C70.3125 49.4766 70.2516 50.5016 70.1562 51.5172ZM27.3797 33.0125C27.9938 32.675 28.7313 32.7875 29.2375 33.2203L29.1594 33.0906C42.8688 43.1219 45.6859 47.7359 45.7375 47.8219C47.9766 51.5047 46.6453 56.2141 42.7703 58.3391C38.8953 60.4641 33.9375 59.2031 31.7 55.5203C31.6453 55.4375 28.85 50.8109 26.5578 34.5172L26.6375 34.6453C26.4984 34.0141 26.7672 33.3484 27.3797 33.0125ZM34.5094 53.9828C35.3766 55.4062 36.9922 56.2922 38.7266 56.2922C39.5734 56.2922 40.4125 56.0781 41.1516 55.6719C42.2766 55.0547 43.0812 54.0609 43.4172 52.8687C43.7547 51.675 43.5812 50.4312 42.9437 49.3812C42.9172 49.3422 40.4875 45.6531 30.3469 37.9C32.3484 50.1109 34.4922 53.9516 34.5094 53.9828Z" fill="black"/>
</svg>
