<svg width="76" height="75" fill="none" xmlns="http://www.w3.org/2000/svg"><path d="M53.336 29.795c0-.908-.557-1.7-1.377-2.05-5.508-2.315-9.815-6.593-12.158-12.1a2.233 2.233 0 00-2.08-1.377c-.908 0-1.7.527-2.08 1.377-2.315 5.478-6.621 9.755-12.1 12.07-.82.351-1.377 1.142-1.377 2.05 0 .909.527 1.7 1.348 2.08 5.273 2.315 9.668 6.768 12.1 12.247a2.241 2.241 0 002.05 1.348c.879 0 1.7-.528 2.05-1.377 2.286-5.303 6.768-9.756 12.247-12.188a2.293 2.293 0 001.377-2.08zM37.662 41.807c-2.607-5.215-6.855-9.492-11.894-12.012 5.214-2.52 9.404-6.68 11.923-11.895 2.55 5.245 6.739 9.434 12.012 11.924-5.215 2.637-9.521 6.914-12.04 11.983z" fill="#000"/><path d="M51.754 52.969c.264.088.616.205 1.055.176a2.754 2.754 0 001.846-.82 2.63 2.63 0 00.79-1.964c-.058-4.628 2.872-8.671 7.266-10.048.293-.088.616-.235.85-.44.586-.44.967-1.084 1.055-1.758a2.789 2.789 0 00-.498-2.08c-2.754-3.72-2.784-8.7-.03-12.363l.352-.41.146-.44a2.689 2.689 0 00-.175-2.08c-.352-.674-.938-1.172-1.612-1.377-4.394-1.406-7.295-5.42-7.265-10.02 0-.35-.059-.673-.147-.966-.234-.674-.732-1.23-1.406-1.582a2.635 2.635 0 00-2.05-.117 9.99 9.99 0 01-3.34.557 10.4 10.4 0 01-8.468-4.366 3.34 3.34 0 00-.644-.644 2.762 2.762 0 00-3.838.644c-1.934 2.754-5.098 4.366-8.467 4.366a9.7 9.7 0 01-3.31-.557c-.938-.322-2.139-.088-2.842.674a2.629 2.629 0 00-.791 1.963c.058 4.628-2.871 8.642-7.237 10.02-.322.087-.585.233-.878.439a2.785 2.785 0 00-.557 3.867c2.754 3.72 2.754 8.7 0 12.422a2.91 2.91 0 00-.41.79c-.205.704-.147 1.407.205 2.11.352.645.937 1.143 1.611 1.348 4.395 1.406 7.295 5.449 7.237 9.99-.03.352.029.674.146.996.234.674.733 1.23 1.406 1.582a2.635 2.635 0 002.051.117 10.459 10.459 0 013.398-.556c3.399 0 6.446 1.61 8.438 4.394.176.235.41.469.645.645a2.632 2.632 0 001.582.527c.146 0 .322 0 .468-.03a2.706 2.706 0 001.787-1.113c2.52-3.808 7.237-5.36 11.631-3.896zM37.78 55.196a13.154 13.154 0 00-10.723-5.567c-1.435 0-2.871.235-4.219.762.088-5.83-3.633-10.957-9.17-12.656 3.487-4.717 3.487-11.045-.029-15.674 5.567-1.729 9.287-6.797 9.258-12.657 1.318.44 2.725.674 4.13.674 4.278 0 8.292-2.08 10.665-5.566 2.46 3.486 6.504 5.566 10.781 5.566 1.436 0 2.871-.234 4.16-.732-.058 5.771 3.604 10.84 9.111 12.656-3.427 4.688-3.427 10.928 0 15.645-5.537 1.787-9.228 6.884-9.11 12.656h-.03c-5.508-1.875-11.543.088-14.824 4.893z" fill="#000"/><path d="M28.639 56.69c-.645-.41-1.524-.235-1.934.41L19.85 67.588l-3.78-7.734-7.851-.03 7.178-10.986c.439-.645.234-1.523-.41-1.934-.645-.439-1.524-.234-1.934.41L3.033 62.638l11.309.03 5.185 10.605 9.551-14.649c.41-.644.205-1.523-.44-1.933zm32.808-9.405a1.414 1.414 0 00-1.933-.41 1.414 1.414 0 00-.41 1.934l7.207 11.015-7.852.03-3.78 7.734-6.884-10.518a1.414 1.414 0 00-1.934-.41c-.644.44-.82 1.29-.41 1.934l9.58 14.677 5.186-10.605 11.308-.03-10.078-15.35z" fill="#000"/></svg>