<svg width="75" height="75" fill="none" xmlns="http://www.w3.org/2000/svg"><path fill-rule="evenodd" clip-rule="evenodd" d="M70.156 51.517c0 .017.01.03.01.045 0 .008-.005.016-.005.026.001.007.005.015.005.024 0 .863-.699 1.563-1.563 1.563.024-.002-13.915-.05-13.915-.05a1.562 1.562 0 110-3.125h12.415c.03-.522.085-1.034.085-1.563 0-16.395-13.293-29.687-29.688-29.687S7.812 32.042 7.812 48.438c0 .528.055 1.04.083 1.562h12.418a1.562 1.562 0 110 3.125l-13.916.048c-.864 0-1.563-.7-1.563-1.562 0-.01.004-.017.005-.025 0-.01-.005-.017-.005-.025 0-.017.01-.03.01-.044a32.905 32.905 0 01-.157-3.08c0-18.123 14.691-32.812 32.813-32.812s32.813 14.69 32.813 32.813c0 1.039-.061 2.064-.157 3.08zM27.38 33.012a1.644 1.644 0 011.858.208l-.079-.13c13.71 10.032 16.527 14.646 16.578 14.732 2.24 3.683.908 8.392-2.967 10.517s-8.833.864-11.07-2.819c-.055-.083-2.85-4.71-5.142-21.003l.08.128a1.48 1.48 0 01.742-1.633zm7.13 20.97c.867 1.424 2.482 2.31 4.217 2.31.846 0 1.686-.214 2.425-.62 1.125-.617 1.93-1.611 2.265-2.803a4.375 4.375 0 00-.473-3.488c-.027-.039-2.457-3.728-12.597-11.481 2.001 12.21 4.145 16.052 4.162 16.083z" fill="#000"/></svg>