<svg id="Layer_1" data-name="Layer 1" xmlns="http://www.w3.org/2000/svg" xmlns:xlink="http://www.w3.org/1999/xlink" viewBox="0 0 938.26 1022.43"><defs><style>.cls-1{fill:none;}.cls-2{fill:#fff;}.cls-3{isolation:isolate;}.cls-4{clip-path:url(#clip-path);}</style><clipPath id="clip-path" transform="translate(-41.41 -2)"><polygon class="cls-1" points="522.91 511.07 521.32 1069.97 40.94 793.23 42.53 234.33 522.91 511.07"/></clipPath></defs><text x="-41.41" y="-2"/><path class="cls-2" d="M863,147.19c20,11.5,34.91,24.4,45,38.79s15.3,29.21,15.26,44.27-4.83,29.88-14.76,44.27S883.79,301.8,864,313.3L522.91,511.07,427,455.83,768.08,258.05c6.65-3.85,11.62-8.23,14.8-13.05a27.25,27.25,0,0,0,4.8-14.68,25.63,25.63,0,0,0-5.09-14.76c-3.36-4.74-8.52-9-15.21-12.9A82.88,82.88,0,0,0,745,193.91a113.83,113.83,0,0,0-50.67.07,78.3,78.3,0,0,0-22.41,8.68L330.86,400.43,234.58,345,575.64,147.19c6.65-3.85,11.76-8.15,15.07-12.9a24.9,24.9,0,0,0,4.79-14.68,24.47,24.47,0,0,0-5-14.68c-3.36-4.75-8.52-9.05-15.21-12.91A82.4,82.4,0,0,0,553,83.27a116.25,116.25,0,0,0-50.81,0A81.54,81.54,0,0,0,479.87,92L138.81,289.79,42.53,234.33,383.59,36.56c19.82-11.5,42.1-20.1,67.09-25.81a340.38,340.38,0,0,1,153.06-.07c24.92,5.78,47.42,14.46,67.24,25.88,17.9,10.3,31.95,22.09,42.16,35.22s15.8,27.14,17,41.6a333.18,333.18,0,0,1,72,9.71Q836.14,131.77,863,147.19Z" transform="translate(-41.41 -2)"/><g class="cls-3"><g class="cls-4"><path class="cls-2" d="M185.11,876.28c17.89,10.31,35,16.48,51.39,18.67s31.33,0,44.62-6.07a324.78,324.78,0,0,0,44.45,57.38C342,963,359.26,976.61,377.16,986.92c19.82,11.42,38.62,18,56.15,19.49a91.89,91.89,0,0,0,24.66-1.15,69.22,69.22,0,0,0,21.4-7.8c13-7.56,23.39-19.19,30.91-35s11.45-35.09,11.51-57.82l1.12-393.61L426.63,455.6l-1.12,393.61c0,7.68-1.2,14.24-3.67,19.47a24.93,24.93,0,0,1-10.34,11.48,25.34,25.34,0,0,1-15.23,3.06c-5.8-.53-12.11-2.84-18.8-6.69a82.16,82.16,0,0,1-18.78-15A107.17,107.17,0,0,1,343.53,841a110.27,110.27,0,0,1-10.25-23.35A81,81,0,0,1,329.74,794l1.12-393.61L234.58,345l-1.12,393.61c0,7.68-1.2,14.24-3.79,19.4a25,25,0,0,1-10.22,11.56,25.3,25.3,0,0,1-15.22,3.05c-5.93-.6-12.12-2.83-18.81-6.69a82.16,82.16,0,0,1-18.78-15,111.19,111.19,0,0,1-15.28-20.63A119.65,119.65,0,0,1,141.11,707a78.35,78.35,0,0,1-3.8-23.77l1.12-393.61-95.9-55.24L41.41,627.94c-.06,22.72,3.61,46.42,11,70.79A340.7,340.7,0,0,0,129,831.11q26.22,28,56.09,45.17" transform="translate(-41.41 -2)"/></g></g><path class="cls-2" d="M975.28,586a95.47,95.47,0,0,1,4.39,28.77q.09,33.94-13.56,72a364.51,364.51,0,0,1-37.29,74.66,434.32,434.32,0,0,1-55.1,68.72c-21.11,21.32-43.58,39.42-67.68,54L585.88,1017.57c-31.07,18.84-70.86-3.37-71-39.64l-2-436.88A46.61,46.61,0,0,1,535.28,501l268.2-162.6c24.1-14.54,46.73-24,67.75-28.09s39.64-3.51,55.57,1.62a70.08,70.08,0,0,1,37.7,29.24c9.34,14.28,14,32.7,14.17,55.09a147.82,147.82,0,0,1-4.36,34,265.13,265.13,0,0,1-12.43,38.44,291,291,0,0,1-19.32,38.71A251.88,251.88,0,0,1,917.44,543a45.52,45.52,0,0,1,25.64,4.13,55.61,55.61,0,0,1,19.59,15.39A66.44,66.44,0,0,1,975.28,586ZM629.57,553.3l.14,26.88c.18,36.27,40,58.46,71,39.62l103.75-62.89a116.09,116.09,0,0,0,22.74-18.1A135.11,135.11,0,0,0,845.63,516a118.12,118.12,0,0,0,12.2-24.86,73.88,73.88,0,0,0,4.39-24.35c0-7.6-1.52-13.82-4.5-18.5a22.26,22.26,0,0,0-12.44-9.83c-5.39-1.76-11.46-2-18.61-.43a73.67,73.67,0,0,0-22.62,9.45L629.57,553.3M858.83,709.39a72.29,72.29,0,0,0,4.39-24q0-11.4-4.51-18.67a22.18,22.18,0,0,0-12.43-9.82c-5.4-1.77-11.47-1.83-18.61-.43s-14.55,4.73-22.63,9.6L653.18,758.12a46.65,46.65,0,0,0-22.48,40.11h0c.19,36.27,40,58.45,71,39.62L805.47,775a114.73,114.73,0,0,0,22.74-18.1,134.67,134.67,0,0,0,18.42-22.77,113.81,113.81,0,0,0,12.2-24.7" transform="translate(-41.41 -2)"/></svg>