<svg id="Layer_1" data-name="Layer 1" xmlns="http://www.w3.org/2000/svg" xmlns:xlink="http://www.w3.org/1999/xlink" viewBox="0 0 938.26 1022.43"><defs><style>.cls-1{fill:none;}.cls-2{fill:#363838;}.cls-3{isolation:isolate;}.cls-4{clip-path:url(#clip-path);}.cls-5{fill:#fbbd36;}</style><clipPath id="clip-path" transform="translate(-41.41 -2)"><polygon class="cls-1" points="522.91 511.07 521.32 1069.97 40.94 793.23 42.53 234.33 522.91 511.07"/></clipPath></defs><text x="-41.41" y="-2"/><path class="cls-2" d="M863,147.19c20,11.5,34.91,24.4,45,38.79s15.3,29.21,15.26,44.27-4.83,29.88-14.76,44.27S883.79,301.8,864,313.3L522.91,511.07,427,455.83,768.08,258.05c6.65-3.85,11.62-8.23,14.8-13.05a27.25,27.25,0,0,0,4.8-14.68,25.63,25.63,0,0,0-5.09-14.76c-3.36-4.74-8.52-9-15.21-12.9A82.88,82.88,0,0,0,745,193.91a113.83,113.83,0,0,0-50.67.07,78.3,78.3,0,0,0-22.41,8.68L330.86,400.43,234.58,345,575.64,147.19c6.65-3.85,11.76-8.15,15.07-12.9a24.9,24.9,0,0,0,4.79-14.68,24.47,24.47,0,0,0-5-14.68c-3.36-4.75-8.52-9.05-15.21-12.91A82.4,82.4,0,0,0,553,83.27a116.25,116.25,0,0,0-50.81,0A81.54,81.54,0,0,0,479.87,92L138.81,289.79,42.53,234.33,383.59,36.56c19.82-11.5,42.1-20.1,67.09-25.81a340.38,340.38,0,0,1,153.06-.07c24.92,5.78,47.42,14.46,67.24,25.88,17.9,10.3,31.95,22.09,42.16,35.22s15.8,27.14,17,41.6a333.18,333.18,0,0,1,72,9.71Q836.14,131.77,863,147.19Z" transform="translate(-41.41 -2)"/><g class="cls-3"><g class="cls-4"><path class="cls-2" d="M185.11,876.28c17.89,10.31,35,16.48,51.39,18.67s31.33,0,44.62-6.07a324.78,324.78,0,0,0,44.45,57.38C342,963,359.26,976.61,377.16,986.92c19.82,11.42,38.62,18,56.15,19.49a91.89,91.89,0,0,0,24.66-1.15,69.22,69.22,0,0,0,21.4-7.8c13-7.56,23.39-19.19,30.91-35s11.45-35.09,11.51-57.82l1.12-393.61L426.63,455.6l-1.12,393.61c0,7.68-1.2,14.24-3.67,19.47a24.93,24.93,0,0,1-10.34,11.48,25.34,25.34,0,0,1-15.23,3.06c-5.8-.53-12.11-2.84-18.8-6.69a82.16,82.16,0,0,1-18.78-15A107.17,107.17,0,0,1,343.53,841a110.27,110.27,0,0,1-10.25-23.35A81,81,0,0,1,329.74,794l1.12-393.61L234.58,345l-1.12,393.61c0,7.68-1.2,14.24-3.79,19.4a25,25,0,0,1-10.22,11.56,25.3,25.3,0,0,1-15.22,3.05c-5.93-.6-12.12-2.83-18.81-6.69a82.16,82.16,0,0,1-18.78-15,111.19,111.19,0,0,1-15.28-20.63A119.65,119.65,0,0,1,141.11,707a78.35,78.35,0,0,1-3.8-23.77l1.12-393.61-95.9-55.24L41.41,627.94c-.06,22.72,3.61,46.42,11,70.79A340.7,340.7,0,0,0,129,831.11q26.22,28,56.09,45.17" transform="translate(-41.41 -2)"/></g></g><path class="cls-5" d="M975.28,586a95.47,95.47,0,0,1,4.39,28.77q.09,33.94-13.56,72a364.51,364.51,0,0,1-37.29,74.66,434.32,434.32,0,0,1-55.1,68.72c-21.11,21.32-43.58,39.42-67.68,54L585.88,1017.57c-31.07,18.84-70.86-3.37-71-39.64l-2-436.88A46.61,46.61,0,0,1,535.28,501l268.2-162.6c24.1-14.54,46.73-24,67.75-28.09s39.64-3.51,55.57,1.62a70.08,70.08,0,0,1,37.7,29.24c9.34,14.28,14,32.7,14.17,55.09a147.82,147.82,0,0,1-4.36,34,265.13,265.13,0,0,1-12.43,38.44,291,291,0,0,1-19.32,38.71A251.88,251.88,0,0,1,917.44,543a45.52,45.52,0,0,1,25.64,4.13,55.61,55.61,0,0,1,19.59,15.39A66.44,66.44,0,0,1,975.28,586ZM629.57,553.3l.14,26.88c.18,36.27,40,58.46,71,39.62l103.75-62.89a116.09,116.09,0,0,0,22.74-18.1A135.11,135.11,0,0,0,845.63,516a118.12,118.12,0,0,0,12.2-24.86,73.88,73.88,0,0,0,4.39-24.35c0-7.6-1.52-13.82-4.5-18.5a22.26,22.26,0,0,0-12.44-9.83c-5.39-1.76-11.46-2-18.61-.43a73.67,73.67,0,0,0-22.62,9.45L629.57,553.3M858.83,709.39a72.29,72.29,0,0,0,4.39-24q0-11.4-4.51-18.67a22.18,22.18,0,0,0-12.43-9.82c-5.4-1.77-11.47-1.83-18.61-.43s-14.55,4.73-22.63,9.6L653.18,758.12a46.65,46.65,0,0,0-22.48,40.11h0c.19,36.27,40,58.45,71,39.62L805.47,775a114.73,114.73,0,0,0,22.74-18.1,134.67,134.67,0,0,0,18.42-22.77,113.81,113.81,0,0,0,12.2-24.7" transform="translate(-41.41 -2)"/><path class="cls-2" d="M60.49,248a95.64,95.64,0,0,1,13.8,11.11c2.34,2.28,5.56-1.1,3.53-3.53-4.2-5.06-9.4-9.12-14.68-13-1.26-.93-2.51-1.91-3.82-2.77A16.25,16.25,0,0,0,55,238a34.65,34.65,0,0,1-8.51-3.83c-2.41-1.51-5.05,1.94-3,3.93a125.79,125.79,0,0,0,17.36,14.55,24,24,0,0,0,9.58,4.13c3.73.57,7.41-.08,11,1.26a32.94,32.94,0,0,1,8.2,5c3,2.24,5.88,4.52,8.93,6.63a103.33,103.33,0,0,0,18.82,10c6.29,2.64,12.81,5.36,17.34,10.67a2.53,2.53,0,0,0,3.54,0,2.56,2.56,0,0,0,0-3.54c-4.21-4.92-10-7.89-15.9-10.4-6.43-2.77-12.72-5.49-18.62-9.32-3.07-2-6-4.13-8.92-6.35a66.8,66.8,0,0,0-8.51-6,21.92,21.92,0,0,0-10.06-2.76,29.88,29.88,0,0,1-5.35-.24A17.69,17.69,0,0,1,66.06,250a62.48,62.48,0,0,1-9.46-6.81q-5-4.09-9.6-8.62l-3,3.93a38.66,38.66,0,0,0,8.68,4,16.39,16.39,0,0,1,3.8,1.42c1.33.81,2.56,1.79,3.81,2.71,5.06,3.72,10,7.64,14,12.49l3.53-3.53A102.13,102.13,0,0,0,63,243.72c-2.69-1.78-5.2,2.55-2.52,4.32Z" transform="translate(-41.41 -2)"/><path class="cls-2" d="M254.35,352.63a118.14,118.14,0,0,0-13.83-8A2.5,2.5,0,0,0,238,349a117.13,117.13,0,0,1,13.82,8,2.52,2.52,0,0,0,3.42-.89,2.56,2.56,0,0,0-.89-3.42Z" transform="translate(-41.41 -2)"/><path class="cls-2" d="M241.18,351.4c5,3.77,10.69,6.53,16.25,9.43a124.09,124.09,0,0,1,15.95,10.07A89,89,0,0,0,281,376a71.86,71.86,0,0,0,9.2,4.18c6.07,2.44,11.27,6.26,16.68,9.87a172.16,172.16,0,0,0,19.61,11.65,2.56,2.56,0,0,0,3.42-.9,2.52,2.52,0,0,0-.89-3.42,159.36,159.36,0,0,1-17.45-10.21c-5.52-3.63-10.84-7.85-16.92-10.51-2.92-1.28-5.95-2.31-8.8-3.73a61.31,61.31,0,0,1-8.2-5.1,144.44,144.44,0,0,0-15.6-10.24c-6.24-3.33-12.71-6.29-18.39-10.55a2.52,2.52,0,0,0-3.42.9,2.55,2.55,0,0,0,.9,3.42Z" transform="translate(-41.41 -2)"/><path class="cls-2" d="M456.18,467.35q-4.73-2.1-9.56-3.92a2.49,2.49,0,0,0-2.82,1.15,2.59,2.59,0,0,0,.39,3,21.33,21.33,0,0,0,6,4.57c2.46,1.42,4.91,2.86,7.31,4.38,4.74,3,9.35,6.23,13.78,9.69a2.58,2.58,0,0,0,3.54,0,2.52,2.52,0,0,0,0-3.53c-6-5.61-13.31-9.19-20.64-12.63-7.15-3.36-14.52-6.71-20.34-12.16-2.35-2.2-5.89,1.33-3.54,3.53,6,5.59,13.32,9.17,20.65,12.62,7.15,3.35,14.51,6.71,20.33,12.17l3.54-3.53c-4.52-3.54-9.18-6.88-14-10q-3.54-2.26-7.18-4.35a20.24,20.24,0,0,1-5.88-4.32l-2.43,4.18c2.82,1.06,5.61,2.19,8.36,3.42a2.57,2.57,0,0,0,3.42-.9,2.51,2.51,0,0,0-.89-3.42Z" transform="translate(-41.41 -2)"/><path class="cls-2" d="M430.84,455.61h0l.59.26-.16-.1.51.39a.86.86,0,0,1-.14-.13l.39.5-.06-.1a2,2,0,0,0-.65-.7,1.89,1.89,0,0,0-.85-.45,1.85,1.85,0,0,0-1,0,1.71,1.71,0,0,0-.93.3l-.51.39a2.5,2.5,0,0,0-.64,1.1l-.09.66a2.44,2.44,0,0,0,.34,1.27l0,.05c.13.2.29.38.43.56l.09.1,0,0h0l.51.39.06,0,.06,0c.21.11.43.19.65.28a1.9,1.9,0,0,0,1,.05,2,2,0,0,0,.93-.3,1.88,1.88,0,0,0,.7-.64,2,2,0,0,0,.45-.85l.09-.67a2.53,2.53,0,0,0-.34-1.26l-.39-.51a2.53,2.53,0,0,0-1.11-.64Z" transform="translate(-41.41 -2)"/><path class="cls-2" d="M460.4,476.58A241.78,241.78,0,0,1,482,490.48c6.66,4.74,13.27,9.58,20.32,13.74a101.15,101.15,0,0,0,12.67,6.33A2.52,2.52,0,0,0,518,508.8a2.56,2.56,0,0,0-1.74-3.08c-14.91-6.15-27.33-16.85-40.65-25.69q-6.21-4.12-12.7-7.77c-2.81-1.58-5.33,2.74-2.52,4.32Z" transform="translate(-41.41 -2)"/><path class="cls-2" d="M515.47,509.44a14,14,0,0,0,2.68,2,10.74,10.74,0,0,0,1.22.62,9.19,9.19,0,0,0,.86.36,4.66,4.66,0,0,0,.74.11,4.17,4.17,0,0,0,.72-.09,2.75,2.75,0,0,0,1.57-1.23,6,6,0,0,0,.34-.83l-.26.59a2.28,2.28,0,0,1,.17-.3l-.39.51a1.9,1.9,0,0,1,.19-.21l-3.54-3.53a2.93,2.93,0,0,0-.71,1.2,3.34,3.34,0,0,0-.13.83,2.53,2.53,0,0,0,.73,1.77,2.57,2.57,0,0,0,1.77.73,2.53,2.53,0,0,0,1.77-.73l.39-.5a2.57,2.57,0,0,0,.34-1.27v-.06l-.09.67a.36.36,0,0,1,0-.11l-.25.59,0,0-.39.51,0-.05a2.64,2.64,0,0,0,.73-1.77,2.52,2.52,0,0,0-.73-1.76,2.56,2.56,0,0,0-1.77-.74,2.72,2.72,0,0,0-1.77.74,3.7,3.7,0,0,0-.67.85c-.17.32-.27.67-.41,1l.25-.6,0,0,.9-.89,0,0,.59-.25h1.28a1,1,0,0,1-.24-.08l.59.25a11.75,11.75,0,0,1-2.54-1.49l.5.39a10.53,10.53,0,0,1-1-.82,2.59,2.59,0,0,0-1.77-.73,2.51,2.51,0,0,0-2.5,2.5,2.58,2.58,0,0,0,.74,1.77Z" transform="translate(-41.41 -2)"/><path class="cls-2" d="M519.44,510.37l0,0-.25-.6v0l-.09-.67a2.88,2.88,0,0,0,.37,1.36l.2.27a1.09,1.09,0,0,0,.21.26,2.49,2.49,0,0,0,1.13.66,2.61,2.61,0,0,0,1.36,0l.59-.25.52-.4a2.85,2.85,0,0,0,.69-1.19l-.26.6.05-.08-.39.51.08-.08-.51.39.08,0-3-3.93c-.2.25-.39.49-.61.72s-.21.19-.3.3l0,0-.39.5,0,0a2.8,2.8,0,0,0-.28.67,0,0,0,0,0,0,0l-.09.66.09.67a.8.8,0,0,0,.13.32.93.93,0,0,0,.13.31l.39.5,0,0-.64-1.1h0v-1.33h0l.25-.6h0l.9-.89h0l1.92-.25h0l1.49,3.67,0,0-.39.51.07-.07-.51.39.08,0a2,2,0,0,0,.75-.68,1.77,1.77,0,0,0,.46-.87,2.56,2.56,0,0,0,.05-.37,3.41,3.41,0,0,0,0-.42l-.09.66,0,0-.26.59,0-.05-.39.51a1,1,0,0,1,.19-.17,4.28,4.28,0,0,0,.45-.57l.1-.15-.39.5a1.7,1.7,0,0,1,.19-.19l.19-.23a1.83,1.83,0,0,0,.51-.8,2.23,2.23,0,0,0,0-1.93,1.83,1.83,0,0,0-.51-.8l-.51-.39a2.54,2.54,0,0,0-1.26-.35l-.67.09a2.52,2.52,0,0,0-1.1.65,2.35,2.35,0,0,1-.26.29l-.12.13-.39.5v0l0,.05a.56.56,0,0,1-.05.08l.39-.5c-.06.08-.15.12-.22.2l0,0h0l-.39.51a2.21,2.21,0,0,0-.16.35,2.52,2.52,0,0,0-.13.33h0l-.09.67V510l.09-.66v0l.25-.59h0l.39-.5,0,0,.5-.39-.06,0a3.33,3.33,0,0,0-.56.43l-.05.05-.4.52,0,0a2.54,2.54,0,0,0-.34,1.27,1.88,1.88,0,0,0,.22,1,1.83,1.83,0,0,0,.51.8,2.55,2.55,0,0,0,1.11.65l.67.09a1.86,1.86,0,0,0,1-.22,1.66,1.66,0,0,0,.31-.12,4.33,4.33,0,0,0,.7-.65,1.65,1.65,0,0,0,.45-.86c0-.06.1-.61.1-.68s-.08-.62-.1-.67l-.25-.6a4.91,4.91,0,0,0-.39-.51l0,0,.39.5h0l.25.6v1.31s0,0,0-.06l-.25.6a.22.22,0,0,1,.05-.08l-.39.5a2.18,2.18,0,0,1,.22-.21l.25-.27c.15-.18.3-.37.46-.55a1.93,1.93,0,0,0,.51-.81,1.84,1.84,0,0,0,.22-1l-.09-.66a1.89,1.89,0,0,0-.45-.85,1.21,1.21,0,0,0-.45-.45,1.89,1.89,0,0,0-.85-.45l-.66-.09a2.53,2.53,0,0,0-1.26.34,1.68,1.68,0,0,0-.33.25,1.31,1.31,0,0,0-.32.26,3.87,3.87,0,0,0-.44.56c-.11.22-.19.45-.28.68l.25-.6,0,0,.39-.51h0l.5-.39h0l.6-.25h0l.67-.08h0l.67.09h0l.6.25h0l.51.39h0l.4.5,0,0,.25.59a.07.07,0,0,1,0,0l.09.67a2.7,2.7,0,0,0-.37-1.36,1.83,1.83,0,0,0-.65-.7,1.89,1.89,0,0,0-.85-.45,2,2,0,0,0-1-.05,1.9,1.9,0,0,0-.93.3l-.51.39a2.48,2.48,0,0,0-.64,1.11l-.09.66a2.43,2.43,0,0,0,.34,1.26Z" transform="translate(-41.41 -2)"/></svg>