<svg id="Layer_1" data-name="Layer 1" xmlns="http://www.w3.org/2000/svg" viewBox="0 0 938.26 1022.43"><defs><clipPath id="clip-path" transform="translate(-41.41 -2)"><path fill="none" d="M522.91 511.07l-1.59 558.9L40.94 793.23l1.59-558.9 480.38 276.74z"/></clipPath><style>.cls-2{fill:#fff}</style></defs><path class="cls-2" d="M863 147.19c20 11.5 34.91 24.4 45 38.79s15.3 29.21 15.26 44.27-4.83 29.88-14.76 44.27-24.71 27.28-44.5 38.78L522.91 511.07 427 455.83l341.08-197.78c6.65-3.85 11.62-8.23 14.8-13.05a27.25 27.25 0 004.8-14.68 25.63 25.63 0 00-5.09-14.76c-3.36-4.74-8.52-9-15.21-12.9a82.88 82.88 0 00-22.38-8.75 113.83 113.83 0 00-50.67.07 78.3 78.3 0 00-22.41 8.68L330.86 400.43 234.58 345l341.06-197.81c6.65-3.85 11.76-8.15 15.07-12.9a24.9 24.9 0 004.79-14.68 24.47 24.47 0 00-5-14.68c-3.36-4.75-8.52-9.05-15.21-12.91A82.4 82.4 0 00553 83.27a116.25 116.25 0 00-50.81 0A81.54 81.54 0 00479.87 92L138.81 289.79l-96.28-55.46L383.59 36.56c19.82-11.5 42.1-20.1 67.09-25.81a340.38 340.38 0 01153.06-.07c24.92 5.78 47.42 14.46 67.24 25.88 17.9 10.3 31.95 22.09 42.16 35.22s15.8 27.14 17 41.6a333.18 333.18 0 0172 9.71q34 8.68 60.86 24.1z" transform="translate(-41.41 -2)"/><g clip-path="url(#clip-path)"><path class="cls-2" d="M185.11 876.28c17.89 10.31 35 16.48 51.39 18.67s31.33 0 44.62-6.07a324.78 324.78 0 0044.45 57.38c16.43 16.74 33.69 30.35 51.59 40.66 19.82 11.42 38.62 18 56.15 19.49a91.89 91.89 0 0024.66-1.15 69.22 69.22 0 0021.4-7.8c13-7.56 23.39-19.19 30.91-35s11.45-35.09 11.51-57.82l1.12-393.61-96.28-55.43-1.12 393.61c0 7.68-1.2 14.24-3.67 19.47a24.93 24.93 0 01-10.34 11.48 25.34 25.34 0 01-15.23 3.06c-5.8-.53-12.11-2.84-18.8-6.69a82.16 82.16 0 01-18.78-15A107.17 107.17 0 01343.53 841a110.27 110.27 0 01-10.25-23.35 81 81 0 01-3.54-23.65l1.12-393.61L234.58 345l-1.12 393.61c0 7.68-1.2 14.24-3.79 19.4a25 25 0 01-10.22 11.56 25.3 25.3 0 01-15.22 3.05c-5.93-.6-12.12-2.83-18.81-6.69a82.16 82.16 0 01-18.78-15 111.19 111.19 0 01-15.28-20.63 119.65 119.65 0 01-10.25-23.3 78.35 78.35 0 01-3.8-23.77l1.12-393.61-95.9-55.24-1.12 393.56c-.06 22.72 3.61 46.42 11 70.79A340.7 340.7 0 00129 831.11q26.22 28 56.09 45.17" transform="translate(-41.41 -2)"/></g><path class="cls-2" d="M975.28 586a95.47 95.47 0 014.39 28.77q.09 33.94-13.56 72a364.51 364.51 0 01-37.29 74.66 434.32 434.32 0 01-55.1 68.72c-21.11 21.32-43.58 39.42-67.68 54l-220.16 133.42c-31.07 18.84-70.86-3.37-71-39.64l-2-436.88a46.61 46.61 0 0122.4-40.05l268.2-162.6c24.1-14.54 46.73-24 67.75-28.09s39.64-3.51 55.57 1.62a70.08 70.08 0 0137.7 29.24c9.34 14.28 14 32.7 14.17 55.09a147.82 147.82 0 01-4.36 34 265.13 265.13 0 01-12.43 38.44 291 291 0 01-19.32 38.71A251.88 251.88 0 01917.44 543a45.52 45.52 0 0125.64 4.13 55.61 55.61 0 0119.59 15.39A66.44 66.44 0 01975.28 586zm-345.71-32.7l.14 26.88c.18 36.27 40 58.46 71 39.62l103.75-62.89a116.09 116.09 0 0022.74-18.1A135.11 135.11 0 00845.63 516a118.12 118.12 0 0012.2-24.86 73.88 73.88 0 004.39-24.35c0-7.6-1.52-13.82-4.5-18.5a22.26 22.26 0 00-12.44-9.83c-5.39-1.76-11.46-2-18.61-.43a73.67 73.67 0 00-22.62 9.45L629.57 553.3m229.26 156.09a72.29 72.29 0 004.39-24q0-11.4-4.51-18.67a22.18 22.18 0 00-12.43-9.82c-5.4-1.77-11.47-1.83-18.61-.43s-14.55 4.73-22.63 9.6l-151.86 92.05a46.65 46.65 0 00-22.48 40.11c.19 36.27 40 58.45 71 39.62L805.47 775a114.73 114.73 0 0022.74-18.1 134.67 134.67 0 0018.42-22.77 113.81 113.81 0 0012.2-24.7" transform="translate(-41.41 -2)"/></svg>